<svg width="20" height="20" viewBox="0 0 20 20" fill="none" xmlns="http://www.w3.org/2000/svg">
<path d="M0 7.94922C0 6.85547 0.205078 5.83008 0.615234 4.87305C1.0319 3.90951 1.60482 3.06315 2.33398 2.33398C3.06315 1.59831 3.90625 1.02539 4.86328 0.615234C5.82682 0.205078 6.85547 0 7.94922 0C9.04948 0 10.0781 0.205078 11.0352 0.615234C11.9987 1.02539 12.8451 1.59831 13.5742 2.33398C14.3034 3.06315 14.873 3.90951 15.2832 4.87305C15.6999 5.83008 15.9082 6.85547 15.9082 7.94922C15.9082 8.80859 15.7747 9.62565 15.5078 10.4004C15.2474 11.1751 14.8861 11.8815 14.4238 12.5195L18.877 16.9922C19.0137 17.1224 19.1146 17.2754 19.1797 17.4512C19.2513 17.627 19.2871 17.8125 19.2871 18.0078C19.2871 18.2812 19.2253 18.5286 19.1016 18.75C18.9779 18.9714 18.8086 19.1439 18.5938 19.2676C18.3789 19.3978 18.1315 19.4629 17.8516 19.4629C17.6562 19.4629 17.4674 19.4271 17.2852 19.3555C17.1094 19.2904 16.9499 19.1862 16.8066 19.043L12.3242 14.5605C11.6992 14.9772 11.0156 15.306 10.2734 15.5469C9.53776 15.7812 8.76302 15.8984 7.94922 15.8984C6.85547 15.8984 5.82682 15.6934 4.86328 15.2832C3.90625 14.873 3.06315 14.3034 2.33398 13.5742C1.60482 12.8451 1.0319 12.002 0.615234 11.0449C0.205078 10.0814 0 9.04948 0 7.94922ZM2.04102 7.94922C2.04102 8.76953 2.19076 9.53776 2.49023 10.2539C2.79622 10.9635 3.2194 11.5885 3.75977 12.1289C4.30664 12.6693 4.93815 13.0957 5.6543 13.4082C6.37044 13.7142 7.13542 13.8672 7.94922 13.8672C8.76953 13.8672 9.53451 13.7142 10.2441 13.4082C10.9603 13.0957 11.5885 12.6693 12.1289 12.1289C12.6693 11.5885 13.0924 10.9635 13.3984 10.2539C13.7109 9.53776 13.8672 8.76953 13.8672 7.94922C13.8672 7.13542 13.7109 6.37044 13.3984 5.6543C13.0924 4.93815 12.6693 4.3099 12.1289 3.76953C11.5885 3.22266 10.9603 2.79948 10.2441 2.5C9.53451 2.19401 8.76953 2.04102 7.94922 2.04102C7.13542 2.04102 6.37044 2.19401 5.6543 2.5C4.93815 2.79948 4.30664 3.22266 3.75977 3.76953C3.2194 4.3099 2.79622 4.93815 2.49023 5.6543C2.19076 6.37044 2.04102 7.13542 2.04102 7.94922Z" fill="#0040DD"/>
</svg>
