<svg width="14" height="17" viewBox="0 0 14 17" fill="none" xmlns="http://www.w3.org/2000/svg">
<path d="M7.32986 4.39481C7.76974 4.17345 7.87447 3.70858 7.7069 3.33225L6.38726 0.476619C6.19874 0.078159 5.77981 -0.121071 5.38182 0.078159C4.98384 0.299526 4.83721 0.764396 5.02573 1.14072L6.34537 4.01849C6.51294 4.41695 6.97377 4.57191 7.32986 4.39481ZM0.752622 5.28028C0.354636 5.28028 0.0194907 5.61233 0.0194907 6.03293C0.0194907 6.45352 0.354636 6.78557 0.752622 6.78557H2.65876C3.16148 9.04352 4.25071 11.1465 5.90549 12.9396C4.2926 14.1792 2.65876 14.954 0.543156 15.441C0.124224 15.5517 -0.0642958 15.9502 0.0194907 16.3708C0.124224 16.9242 0.668836 17.1013 1.27629 16.9463C3.32906 16.3929 5.21425 15.4632 7.01566 13.98C8.79612 15.4632 10.6813 16.3929 12.6922 16.9242C13.3206 17.1013 13.8652 16.9463 13.9699 16.3708C14.0747 15.9502 13.9071 15.5517 13.4463 15.441C11.3516 14.954 9.71777 14.2014 8.10488 12.9396C9.75967 11.1465 10.8489 9.04352 11.3516 6.78557H13.2368C13.6557 6.78557 13.9909 6.45352 13.9909 6.03293C13.9909 5.61233 13.6557 5.28028 13.2368 5.28028H0.752622ZM9.88535 6.78557C9.40357 8.68933 8.39814 10.5045 7.01566 11.9877C5.61224 10.5045 4.6068 8.68933 4.12503 6.78557H9.88535Z" fill="black"/>
</svg>
