<svg width="21" height="21" viewBox="0 0 21 21" fill="none" xmlns="http://www.w3.org/2000/svg">
<path d="M10.0796 20.1592C8.68506 20.1592 7.37939 19.896 6.1626 19.3696C4.95264 18.8501 3.88281 18.1255 2.95312 17.1958C2.03027 16.2729 1.30566 15.2065 0.779297 13.9966C0.259766 12.7798 0 11.4741 0 10.0796C0 8.68506 0.259766 7.37939 0.779297 6.1626C1.30566 4.9458 2.03027 3.87598 2.95312 2.95312C3.88281 2.03027 4.95264 1.30908 6.1626 0.789551C7.37939 0.263184 8.68506 0 10.0796 0C11.4741 0 12.7798 0.263184 13.9966 0.789551C15.2134 1.30908 16.2832 2.03027 17.2061 2.95312C18.1289 3.87598 18.8501 4.9458 19.3696 6.1626C19.896 7.37939 20.1592 8.68506 20.1592 10.0796C20.1592 11.4741 19.896 12.7798 19.3696 13.9966C18.8501 15.2065 18.1289 16.2729 17.2061 17.1958C16.2832 18.1255 15.2134 18.8501 13.9966 19.3696C12.7798 19.896 11.4741 20.1592 10.0796 20.1592ZM10.0796 18.0366C11.1802 18.0366 12.209 17.8281 13.166 17.4111C14.1299 17.001 14.9775 16.4336 15.709 15.709C16.4404 14.9775 17.0112 14.1333 17.4214 13.1763C17.8315 12.2124 18.0366 11.1802 18.0366 10.0796C18.0366 8.979 17.8315 7.9502 17.4214 6.99316C17.0112 6.0293 16.4404 5.18506 15.709 4.46045C14.9775 3.729 14.1299 3.1582 13.166 2.74805C12.209 2.33105 11.1802 2.12256 10.0796 2.12256C8.979 2.12256 7.94678 2.33105 6.98291 2.74805C6.02588 3.1582 5.18164 3.729 4.4502 4.46045C3.71875 5.18506 3.14795 6.0293 2.73779 6.99316C2.32764 7.9502 2.12256 8.979 2.12256 10.0796C2.12256 11.1802 2.32764 12.2124 2.73779 13.1763C3.14795 14.1333 3.71875 14.9775 4.4502 15.709C5.18164 16.4336 6.02588 17.001 6.98291 17.4111C7.94678 17.8281 8.979 18.0366 10.0796 18.0366ZM5.50635 11.5459C5.09619 11.5459 4.74756 11.4023 4.46045 11.1152C4.17334 10.8281 4.02979 10.4795 4.02979 10.0693C4.02979 9.65918 4.17334 9.31055 4.46045 9.02344C4.74756 8.73633 5.09619 8.59277 5.50635 8.59277C5.90967 8.59277 6.2583 8.73633 6.55225 9.02344C6.84619 9.31055 6.99316 9.65918 6.99316 10.0693C6.99316 10.4795 6.84619 10.8281 6.55225 11.1152C6.26514 11.4023 5.9165 11.5459 5.50635 11.5459ZM10.0693 11.5459C9.66602 11.5459 9.31738 11.4023 9.02344 11.1152C8.72949 10.8281 8.58252 10.4795 8.58252 10.0693C8.58252 9.65918 8.72949 9.31055 9.02344 9.02344C9.31738 8.73633 9.66602 8.59277 10.0693 8.59277C10.4795 8.59277 10.8281 8.73633 11.1152 9.02344C11.4023 9.31055 11.5459 9.65918 11.5459 10.0693C11.5459 10.4795 11.4023 10.8281 11.1152 11.1152C10.8281 11.4023 10.4795 11.5459 10.0693 11.5459ZM14.6323 11.5459C14.2222 11.5459 13.8735 11.4023 13.5864 11.1152C13.2993 10.8281 13.1558 10.4795 13.1558 10.0693C13.1558 9.65918 13.2993 9.31055 13.5864 9.02344C13.8735 8.73633 14.2222 8.59277 14.6323 8.59277C15.0356 8.59277 15.3809 8.73633 15.668 9.02344C15.9619 9.31055 16.1089 9.65918 16.1089 10.0693C16.1089 10.4795 15.9619 10.8281 15.668 11.1152C15.3809 11.4023 15.0356 11.5459 14.6323 11.5459Z" fill="#0040DD"/>
</svg>
