<svg width="16" height="20" viewBox="0 0 16 20" fill="none" xmlns="http://www.w3.org/2000/svg">
<path d="M0 16.2114V3.82666C0 3.06299 0.204753 2.4847 0.614258 2.0918C1.02376 1.69336 1.58268 1.47201 2.29102 1.42773C3.25944 1.36686 4.18913 1.28109 5.08008 1.17041C5.97656 1.05973 6.83708 0.932454 7.66162 0.788574C8.4917 0.63916 9.28857 0.475911 10.0522 0.298828C10.8823 0.0996094 11.527 0.193685 11.9863 0.581055C12.4456 0.962891 12.6753 1.58822 12.6753 2.45703V14.5845C12.6753 15.3205 12.548 15.8794 12.2935 16.2612C12.0389 16.6486 11.6017 16.9336 10.9819 17.1162C9.98031 17.3929 9.01188 17.617 8.07666 17.7886C7.14144 17.9657 6.21729 18.104 5.3042 18.2036C4.39665 18.3032 3.47803 18.3779 2.54834 18.4277C1.7404 18.4775 1.1123 18.306 0.664062 17.9131C0.221354 17.5257 0 16.9585 0 16.2114ZM3.25391 5.79395C4.43815 5.71647 5.52279 5.59749 6.50781 5.43701C7.49837 5.27653 8.4751 5.08838 9.43799 4.87256C9.64827 4.82829 9.78385 4.75635 9.84473 4.65674C9.91113 4.55713 9.94434 4.44368 9.94434 4.31641C9.94434 4.17806 9.89176 4.06185 9.78662 3.96777C9.68148 3.86816 9.53206 3.83773 9.33838 3.87646C8.41976 4.08122 7.4707 4.26383 6.49121 4.42432C5.51725 4.5848 4.43538 4.70378 3.24561 4.78125C3.06852 4.79232 2.93848 4.84766 2.85547 4.94727C2.77799 5.04688 2.73926 5.16585 2.73926 5.3042C2.73926 5.44255 2.7863 5.56152 2.88037 5.66113C2.97445 5.76074 3.09896 5.80501 3.25391 5.79395ZM3.25391 8.4917C4.43815 8.40869 5.52279 8.28695 6.50781 8.12646C7.49837 7.96598 8.4751 7.77783 9.43799 7.56201C9.64827 7.51774 9.78385 7.4458 9.84473 7.34619C9.91113 7.24658 9.94434 7.1359 9.94434 7.01416C9.94434 6.87028 9.89176 6.74854 9.78662 6.64893C9.68148 6.54932 9.53206 6.52165 9.33838 6.56592C8.41976 6.7762 7.4707 6.96159 6.49121 7.12207C5.51725 7.27702 4.43538 7.39323 3.24561 7.4707C3.06852 7.48177 2.93848 7.53711 2.85547 7.63672C2.77799 7.73633 2.73926 7.85254 2.73926 7.98535C2.73926 8.13477 2.7863 8.25928 2.88037 8.35889C2.97445 8.45296 3.09896 8.49723 3.25391 8.4917ZM3.25391 11.1812C4.43815 11.0981 5.52279 10.9764 6.50781 10.8159C7.49837 10.6554 8.4751 10.4673 9.43799 10.2515C9.64827 10.2072 9.78385 10.1353 9.84473 10.0356C9.91113 9.93604 9.94434 9.82536 9.94434 9.70361C9.94434 9.56527 9.89176 9.44629 9.78662 9.34668C9.68148 9.24154 9.53206 9.2111 9.33838 9.25537C8.41976 9.46012 7.4707 9.64274 6.49121 9.80322C5.51725 9.95817 4.43538 10.0771 3.24561 10.1602C3.06852 10.1768 2.93848 10.2349 2.85547 10.3345C2.77799 10.4341 2.73926 10.5503 2.73926 10.6831C2.73926 10.827 2.7863 10.9487 2.88037 11.0483C2.97445 11.1424 3.09896 11.1867 3.25391 11.1812ZM3.25391 13.8623C3.94564 13.818 4.53776 13.7655 5.03027 13.7046C5.52279 13.6382 5.99316 13.569 6.44141 13.4971C6.59082 13.4694 6.70426 13.4058 6.78174 13.3062C6.85921 13.201 6.89795 13.0903 6.89795 12.9741C6.89795 12.8358 6.84538 12.7168 6.74023 12.6172C6.63509 12.512 6.48014 12.4761 6.27539 12.5093C5.88249 12.5757 5.44808 12.6393 4.97217 12.7002C4.50179 12.7555 3.92627 12.8026 3.24561 12.8413C3.06852 12.8579 2.93848 12.916 2.85547 13.0156C2.77799 13.1097 2.73926 13.2259 2.73926 13.3643C2.73926 13.5081 2.7863 13.6299 2.88037 13.7295C2.97445 13.8236 3.09896 13.8678 3.25391 13.8623ZM6.85645 19.1914C7.56478 19.0807 8.28971 18.9451 9.03125 18.7847C9.77279 18.6297 10.5337 18.4471 11.314 18.2368C11.8729 18.0763 12.3405 17.8439 12.7168 17.5396C13.0986 17.2407 13.3864 16.8506 13.5801 16.3691C13.7738 15.8877 13.8706 15.2928 13.8706 14.5845V2.49854C13.8706 2.36019 13.8651 2.22461 13.854 2.0918C13.8429 1.95345 13.8291 1.8068 13.8125 1.65186C14.3604 1.7902 14.7726 2.07243 15.0493 2.49854C15.3315 2.91911 15.4727 3.48079 15.4727 4.18359V16.4771C15.4727 17.3791 15.2485 18.057 14.8003 18.5107C14.3576 18.9645 13.6908 19.1914 12.7998 19.1914H6.85645Z" fill="#0040DD"/>
</svg>
